<?xml version="1.0" encoding="UTF-8"?>
<svg width="436px" height="161px" viewBox="0 0 436 161" version="1.1" xmlns="http://www.w3.org/2000/svg" xmlns:xlink="http://www.w3.org/1999/xlink">
    <!-- Generator: Sketch 53.2 (72643) - https://sketchapp.com -->
    <title>Group 10 Copy</title>
    <desc>Created with Sketch.</desc>
    <defs>
        <path d="M327.288285,20.7763734 L335.251528,2.57467496 C335.915626,1.05673579 337.684517,0.364561071 339.202457,1.02865946 C339.893922,1.33117579 340.445956,1.88320905 340.748472,2.57467496 L348.711715,20.7763734 L418,20.7763734 C423.522847,20.7763734 428,25.2535259 428,30.7763734 L428,143.776373 C428,149.299221 423.522847,153.776373 418,153.776373 L10,153.776373 C4.4771525,153.776373 6.76353751e-16,149.299221 0,143.776373 L0,30.7763734 C-6.76353751e-16,25.2535259 4.4771525,20.7763734 10,20.7763734 L327.288285,20.7763734 Z" id="path-1"/>
        <filter x="-1.6%" y="-3.3%" width="103.3%" height="109.2%" filterUnits="objectBoundingBox" id="filter-2">
            <feOffset dx="0" dy="2" in="SourceAlpha" result="shadowOffsetOuter1"/>
            <feGaussianBlur stdDeviation="2" in="shadowOffsetOuter1" result="shadowBlurOuter1"/>
            <feComposite in="shadowBlurOuter1" in2="SourceAlpha" operator="out" result="shadowBlurOuter1"/>
            <feColorMatrix values="0 0 0 0 0   0 0 0 0 0   0 0 0 0 0  0 0 0 0.497678895 0" type="matrix" in="shadowBlurOuter1"/>
        </filter>
    </defs>
    <g id="Page-1" stroke="none" stroke-width="1" fill="none" fill-rule="evenodd">
        <g id="福利首页-提示页" transform="translate(-282.000000, -126.000000)">
            <g id="Group-10-Copy" transform="translate(286.000000, 127.000000)">
                <g id="Combined-Shape">
                    <use fill="black" fill-opacity="1" filter="url(#filter-2)" xlink:href="#path-1"/>
                    <use fill-opacity="0.6" fill="#000000" fill-rule="evenodd" xlink:href="#path-1"/>
                </g>
                <g id="分组-10" transform="translate(15.000000, 53.000000)">
                    <g id="点击“-”添加到我的小程序，-微信首页下" transform="translate(0.952000, 0.564000)" fill-rule="nonzero">
                        <path d="M11.592,0.616 L13.58,0.616 L13.58,3.332 L24.444,3.332 L24.444,5.236 L13.58,5.236 L13.58,8.792 L22.512,8.792 L22.512,17.78 L3.976,17.78 L3.976,8.792 L11.592,8.792 L11.592,0.616 Z M20.496,15.904 L20.496,10.696 L5.992,10.696 L5.992,15.904 L20.496,15.904 Z M3.92,19.012 L5.628,19.824 C4.564,22.26 3.36,24.36 1.96,26.152 L0.308,24.948 C1.708,23.296 2.912,21.308 3.92,19.012 Z M10.024,19.824 C10.584,21.672 11.088,23.688 11.536,25.844 L9.52,26.292 C9.128,23.996 8.68,21.98 8.148,20.216 L10.024,19.824 Z M15.876,19.544 C16.716,21.448 17.444,23.548 18.06,25.788 L16.072,26.236 C15.512,23.856 14.812,21.756 13.972,19.936 L15.876,19.544 Z M21.616,18.984 C23.408,21.336 24.752,23.38 25.704,25.116 L24.024,26.292 C23.044,24.388 21.7,22.316 19.992,20.02 L21.616,18.984 Z M30.856,4.704 L40.012,4.704 L40.012,0.756 L42.084,0.756 L42.084,4.704 L51.128,4.704 L51.128,6.636 L42.084,6.636 L42.084,11.284 L53.424,11.284 L53.424,13.244 L42.084,13.244 L42.084,23.128 L48.692,23.128 L48.692,15.68 L50.624,15.68 L50.624,26.292 L48.692,26.292 L48.692,25.004 L33.432,25.004 L33.432,26.292 L31.5,26.292 L31.5,15.68 L33.432,15.68 L33.432,23.128 L40.012,23.128 L40.012,13.244 L28.7,13.244 L28.7,11.284 L40.012,11.284 L40.012,6.636 L30.856,6.636 L30.856,4.704 Z" id="点击" fill="#FFFFFF"/>
                        <path d="M69.86,0 L69.86,1.848 C69.076,2.1 68.432,2.548 67.928,3.22 C67.424,3.836 67.172,4.508 67.2,5.18 C67.34,5.096 67.564,5.068 67.9,5.068 C68.488,5.068 68.992,5.264 69.44,5.684 C69.832,6.104 70.056,6.636 70.056,7.28 C70.056,7.924 69.832,8.456 69.384,8.876 C68.936,9.268 68.376,9.492 67.704,9.492 C66.92,9.492 66.304,9.156 65.8,8.54 C65.296,7.924 65.072,7.112 65.072,6.16 C65.072,4.648 65.492,3.36 66.36,2.268 C67.2,1.148 68.376,0.392 69.86,0 Z M63.056,0 L63.056,1.848 C62.272,2.1 61.656,2.548 61.152,3.22 C60.62,3.836 60.368,4.508 60.396,5.18 C60.536,5.096 60.76,5.068 61.096,5.068 C61.684,5.068 62.188,5.264 62.608,5.684 C63.028,6.104 63.252,6.636 63.252,7.28 C63.252,7.924 63.028,8.456 62.608,8.876 C62.16,9.268 61.572,9.492 60.9,9.492 C60.116,9.492 59.5,9.156 59.024,8.54 C58.52,7.924 58.268,7.112 58.268,6.16 C58.268,4.648 58.688,3.36 59.556,2.268 C60.396,1.148 61.572,0.392 63.056,0 Z M139.44,0 C140.196,0 140.84,0.308 141.344,0.924 C141.82,1.54 142.072,2.352 142.072,3.332 C142.072,4.816 141.624,6.104 140.784,7.224 C139.916,8.316 138.74,9.072 137.284,9.492 L137.284,7.644 C138.04,7.364 138.684,6.916 139.216,6.3 C139.72,5.628 139.944,4.984 139.944,4.312 C139.776,4.368 139.552,4.424 139.244,4.424 C138.628,4.424 138.124,4.2 137.704,3.78 C137.284,3.36 137.088,2.828 137.088,2.212 C137.088,1.54 137.312,1.008 137.76,0.616 C138.18,0.196 138.74,0 139.44,0 Z M132.636,0 C133.392,0 134.008,0.308 134.512,0.924 C135.016,1.54 135.268,2.352 135.268,3.332 C135.268,4.816 134.82,6.104 133.98,7.224 C133.112,8.316 131.936,9.072 130.48,9.492 L130.48,7.644 C131.236,7.364 131.88,6.916 132.384,6.3 C132.888,5.628 133.14,4.984 133.14,4.312 C132.972,4.368 132.748,4.424 132.44,4.424 C131.824,4.424 131.32,4.2 130.928,3.78 C130.48,3.36 130.284,2.828 130.284,2.212 C130.284,1.54 130.48,1.008 130.928,0.616 C131.376,0.196 131.936,0 132.636,0 Z" id="“”" fill="#FAE740"/>
                        <path d="M154.616,1.68 L170.268,1.68 L170.268,3.556 L162.652,3.556 C162.372,4.816 162.064,5.992 161.672,7.084 L171.5,7.084 L171.5,9.016 L165.62,9.016 C167.076,11.284 169.316,13.076 172.34,14.364 L171.472,16.128 C167.748,14.308 165.116,11.928 163.576,9.016 L160.888,9.016 C160.608,9.576 160.328,10.08 160.048,10.584 C158.62,12.74 156.492,14.672 153.692,16.38 L152.432,14.784 C155.092,13.328 157.08,11.564 158.424,9.548 C158.536,9.352 158.648,9.184 158.76,9.016 L153.328,9.016 L153.328,7.084 L159.656,7.084 C160.104,5.964 160.412,4.788 160.636,3.556 L154.616,3.556 L154.616,1.68 Z M156.324,16.464 L158.004,17.276 C156.968,20.132 155.764,22.624 154.392,24.724 L152.74,23.548 C154.112,21.56 155.316,19.208 156.324,16.464 Z M148.652,0.98 C150.388,2.184 151.872,3.388 153.048,4.62 L151.676,5.992 C150.612,4.844 149.128,3.612 147.252,2.324 L148.652,0.98 Z M147.98,7.672 C149.772,9.044 151.256,10.416 152.46,11.788 L151.088,13.16 C149.996,11.872 148.512,10.472 146.608,9.016 L147.98,7.672 Z M150.528,15.4 L152.292,16.1 C151.172,19.628 149.912,22.96 148.568,26.096 L146.692,25.256 C148.148,22.064 149.436,18.76 150.528,15.4 Z M159.992,26.264 L157.388,26.264 L156.968,24.36 C157.78,24.444 158.564,24.5 159.292,24.5 C159.852,24.5 160.16,24.108 160.16,23.38 L160.16,13.132 L162.092,13.132 L162.092,23.856 C162.092,25.452 161.392,26.264 159.992,26.264 Z M168.644,15.792 C169.96,18.284 171.108,20.944 172.06,23.772 L170.268,24.556 C169.232,21.476 168.112,18.732 166.88,16.38 L168.644,15.792 Z M164.948,16.8 C166.124,19.264 167.132,21.896 168,24.696 L166.208,25.508 C165.312,22.428 164.332,19.74 163.24,17.388 L164.948,16.8 Z M198.884,4.732 L198.884,25.816 L196.924,25.816 L196.924,23.94 L191.66,23.94 L191.66,25.816 L189.728,25.816 L189.728,4.732 L198.884,4.732 Z M191.66,22.008 L196.924,22.008 L196.924,6.664 L191.66,6.664 L191.66,22.008 Z M179.424,0.644 L181.44,0.644 L181.44,6.3 L187.152,6.3 C187.152,15.036 187.012,20.44 186.732,22.512 C186.452,24.808 185.08,25.984 182.616,25.984 C182.196,25.984 181.496,25.928 180.488,25.872 L179.984,24.024 C180.88,24.08 181.664,24.136 182.336,24.136 C183.764,24.136 184.604,23.324 184.828,21.728 C184.996,20.272 185.108,15.764 185.164,8.26 L181.44,8.26 C181.328,16.52 179.48,22.54 175.896,26.348 L174.412,25.032 C177.66,21.532 179.34,15.932 179.424,8.26 L174.944,8.26 L174.944,6.3 L179.424,6.3 L179.424,0.644 Z M217.196,21.56 L217.196,23.548 C212.884,24.444 208.236,25.228 203.252,25.844 L202.804,23.912 C205.044,23.66 207.228,23.38 209.356,23.044 L209.356,17.752 L203.896,17.752 L203.896,15.792 L209.356,15.792 L209.356,12.544 L211.372,12.544 L211.372,15.792 L216.412,15.792 L216.412,17.752 L211.372,17.752 L211.372,22.708 C213.36,22.372 215.292,21.98 217.196,21.56 Z M203.168,1.792 L217.084,1.792 L217.084,3.696 L209.888,3.696 C208.544,6.496 207.284,8.596 206.108,10.024 C208.88,9.744 211.512,9.408 214.032,8.96 C213.416,7.952 212.716,6.944 211.96,5.908 L213.5,4.9 C215.376,7.42 216.804,9.632 217.812,11.508 L216.132,12.684 C215.768,11.956 215.376,11.228 214.928,10.472 C211.4,11.088 207.508,11.62 203.308,12.04 L202.832,10.22 C203.168,10.164 203.448,10.108 203.644,10.024 C204.792,9.016 206.164,6.916 207.76,3.696 L203.168,3.696 L203.168,1.792 Z M224.476,25.984 L220.36,25.984 L219.912,24.024 C221.256,24.08 222.544,24.136 223.776,24.136 C224.56,24.136 224.98,23.716 224.98,22.904 L224.98,0.644 L227.024,0.644 L227.024,23.408 C227.024,25.116 226.156,25.984 224.476,25.984 Z M219.38,3.164 L221.34,3.164 L221.34,20.496 L219.38,20.496 L219.38,3.164 Z M243.684,13.58 L243.684,15.624 C242.06,16.156 240.38,16.66 238.588,17.136 L238.588,23.436 C238.588,25.06 237.72,25.872 236.012,25.872 L232.904,25.872 L232.484,23.94 C233.464,24.024 234.416,24.08 235.34,24.08 C236.124,24.08 236.516,23.688 236.516,22.932 L236.516,17.612 C234.724,18.004 232.904,18.368 231,18.676 L230.72,16.632 C232.764,16.296 234.696,15.96 236.516,15.568 L236.516,10.052 L230.748,10.052 L230.748,8.12 L236.516,8.12 L236.516,4.368 C235.032,4.676 233.492,4.928 231.896,5.152 L231.476,3.22 C235.452,2.772 238.98,1.96 242.06,0.756 L242.732,2.66 C241.444,3.108 240.044,3.528 238.588,3.92 L238.588,8.12 L245.308,8.12 C245.14,5.852 245.056,3.36 245.056,0.616 L247.072,0.616 C247.1,3.444 247.184,5.936 247.352,8.12 L256.004,8.12 L256.004,10.052 L247.52,10.052 C247.716,12.068 247.968,13.748 248.304,15.12 C248.472,15.848 248.668,16.492 248.864,17.108 C250.208,15.484 251.412,13.636 252.42,11.564 L254.156,12.488 C252.868,15.12 251.356,17.36 249.592,19.236 C249.984,20.188 250.376,21 250.824,21.644 C251.72,22.988 252.448,23.688 252.98,23.688 C253.54,23.66 254.016,22.092 254.464,18.956 L256.228,19.88 C255.556,23.856 254.576,25.844 253.288,25.844 C252.14,25.844 250.936,25.004 249.648,23.324 C249.088,22.568 248.556,21.672 248.108,20.664 C246.092,22.456 243.796,23.856 241.248,24.864 L240.156,23.128 C242.9,22.12 245.28,20.636 247.324,18.704 C246.988,17.752 246.68,16.716 246.4,15.624 C246.008,14.028 245.7,12.18 245.476,10.052 L238.588,10.052 L238.588,15.092 C240.408,14.616 242.116,14.112 243.684,13.58 Z M250.152,0.924 C252.168,2.268 253.876,3.584 255.276,4.928 L253.82,6.384 C252.588,5.096 250.936,3.696 248.808,2.212 L250.152,0.924 Z M268.688,5.404 L268.688,24.5 L266.728,24.5 L266.728,22.904 L261.632,22.904 L261.632,25.312 L259.672,25.312 L259.672,5.404 L262.276,5.404 C262.836,3.836 263.228,2.212 263.48,0.532 L265.496,0.812 C265.16,2.464 264.74,4.004 264.18,5.404 L268.688,5.404 Z M261.632,21.028 L266.728,21.028 L266.728,14.896 L261.632,14.896 L261.632,21.028 Z M261.632,13.076 L266.728,13.076 L266.728,7.308 L261.632,7.308 L261.632,13.076 Z M273.56,11.9 C275.576,14.224 277.088,16.268 278.152,18.004 L276.556,19.124 C275.408,17.276 273.868,15.204 271.936,12.908 L273.56,11.9 Z M283.164,5.432 C283.164,14.728 283.024,20.496 282.744,22.68 C282.464,24.808 281.176,25.9 278.824,25.9 C278.264,25.9 277.312,25.844 275.968,25.788 L275.492,23.94 C276.668,23.996 277.676,24.024 278.544,24.024 C279.86,24.024 280.616,23.296 280.84,21.868 C281.008,20.3 281.12,15.456 281.176,7.392 L273.476,7.392 C272.692,9.156 271.768,10.752 270.676,12.18 L269.472,10.584 C271.432,7.84 272.748,4.48 273.476,0.504 L275.464,0.756 C275.128,2.408 274.736,3.976 274.232,5.432 L283.164,5.432 Z M298.032,25.928 L293.748,25.928 L293.272,23.828 C294.672,23.94 296.016,23.996 297.276,23.996 C298.312,23.996 298.844,23.464 298.844,22.428 L298.844,0.98 L300.916,0.98 L300.916,22.96 C300.916,24.92 299.936,25.928 298.032,25.928 Z M291.34,7.476 L293.356,8.26 C292.012,13.86 290.248,18.116 288.064,21.028 L286.328,19.488 C288.568,16.52 290.22,12.516 291.34,7.476 Z M307.244,6.804 C309.456,11.816 311.164,16.184 312.34,19.908 L310.548,21.168 C309.288,17.192 307.58,12.796 305.424,7.952 L307.244,6.804 Z M326.564,1.596 L338.184,1.596 L338.184,9.688 L326.564,9.688 L326.564,1.596 Z M336.224,7.868 L336.224,3.388 L328.552,3.388 L328.552,7.868 L336.224,7.868 Z M325.472,12.292 L339.388,12.292 L339.388,14.14 L333.284,14.14 L333.284,17.724 L338.52,17.724 L338.52,19.544 L333.284,19.544 L333.284,23.324 L340.06,23.324 L340.06,25.228 L324.352,25.228 L324.352,23.324 L331.212,23.324 L331.212,19.544 L326.116,19.544 L326.116,17.724 L331.212,17.724 L331.212,14.14 L325.472,14.14 L325.472,12.292 Z M315,8.232 L319.088,8.232 L319.088,4.172 C317.912,4.34 316.68,4.508 315.42,4.648 L315.028,2.744 C318.528,2.408 321.636,1.82 324.324,0.98 L325.024,2.884 C323.764,3.248 322.42,3.556 321.02,3.836 L321.02,8.232 L324.632,8.232 L324.632,10.164 L321.02,10.164 L321.02,11.648 C322.336,12.936 323.68,14.392 325.024,15.988 L323.904,17.668 C322.784,15.932 321.804,14.532 321.02,13.496 L321.02,26.124 L319.088,26.124 L319.088,13.496 C318.108,16.24 316.82,18.704 315.224,20.916 L314.356,18.676 C316.484,16.184 317.996,13.356 318.892,10.164 L315,10.164 L315,8.232 Z M356.44,0.448 C356.832,1.176 357.224,1.988 357.588,2.884 L367.724,2.884 L367.724,4.732 L347.06,4.732 L347.06,11.928 C346.948,17.864 345.968,22.596 344.064,26.18 L342.552,24.836 C344.148,21.728 344.988,17.416 345.044,11.928 L345.044,2.884 L355.572,2.884 C355.208,2.128 354.816,1.428 354.396,0.784 L356.44,0.448 Z M354.004,10.052 C355.348,10.724 356.58,11.424 357.7,12.124 C359.38,11.144 360.92,9.996 362.32,8.708 L349.972,8.708 L349.972,6.972 L364.84,6.972 L364.84,8.428 C363.132,10.248 361.256,11.816 359.24,13.132 C359.688,13.412 360.108,13.72 360.5,14.028 L360.08,14.448 L367.192,14.448 L367.192,16.016 C366.044,18.2 364.756,20.048 363.328,21.56 L361.816,20.356 C362.992,19.236 364.056,17.892 365.036,16.324 L358.596,16.324 L358.596,23.8 C358.596,25.452 357.756,26.292 356.104,26.292 L351.988,26.292 L351.568,24.388 C352.912,24.472 354.2,24.528 355.432,24.528 C356.188,24.528 356.58,24.108 356.58,23.324 L356.58,16.324 L348.348,16.324 L348.348,14.448 L358.316,14.448 C356.86,13.44 355.012,12.348 352.8,11.228 L354.004,10.052 Z M374.584,20.104 C375.2,20.104 375.732,20.356 376.124,20.888 C376.488,21.392 376.684,22.036 376.684,22.848 C376.684,24.08 376.32,25.172 375.592,26.124 C374.864,27.02 373.884,27.636 372.708,27.944 L372.708,26.572 C373.436,26.32 374.024,25.9 374.472,25.34 C374.892,24.752 375.088,24.136 375.088,23.464 C374.976,23.52 374.752,23.576 374.472,23.576 C373.996,23.576 373.604,23.408 373.268,23.072 C372.932,22.736 372.764,22.316 372.764,21.84 C372.764,21.308 372.932,20.888 373.268,20.58 C373.604,20.244 374.024,20.104 374.584,20.104 Z M20.048,46.86 C19.88,47.56 19.74,48.204 19.572,48.82 C20.048,51.732 20.664,54.308 21.42,56.492 C22.26,53.72 22.708,50.5 22.792,46.86 L20.048,46.86 Z M20.608,58.732 C19.852,56.688 19.208,54.336 18.676,51.704 C18.172,53.048 17.64,54.224 17.08,55.288 L15.96,53.888 C17.584,50.556 18.704,46.076 19.292,40.448 L21.056,40.756 C20.86,42.268 20.636,43.668 20.412,44.984 L25.648,44.984 L25.648,46.86 L24.528,46.86 C24.416,51.62 23.716,55.652 22.4,58.984 C23.436,61.28 24.668,63.072 26.096,64.36 L24.948,66.068 C23.632,64.78 22.484,63.072 21.532,60.944 C20.468,63.016 19.124,64.752 17.556,66.152 L16.492,64.472 C18.228,62.988 19.6,61.084 20.608,58.732 Z M13.552,64.528 L12.712,62.848 C12.992,62.68 13.188,62.4 13.244,62.064 L13.244,56.968 L10.276,56.968 L10.276,58.228 C10.22,61.728 9.324,64.332 7.616,66.068 L6.132,64.78 C7.616,63.268 8.372,61.084 8.4,58.228 L8.4,55.148 L15.036,55.148 L15.036,61.42 C15.82,60.72 16.632,59.964 17.472,59.124 L17.892,60.832 C16.464,62.344 15.008,63.576 13.552,64.528 Z M11.088,40.56 L12.796,40.56 L12.796,46.916 L14.756,46.916 L14.756,42.072 L16.408,42.072 L16.408,48.652 L7.448,48.652 L7.448,42.072 L9.128,42.072 L9.128,46.916 L11.088,46.916 L11.088,40.56 Z M4.676,40.644 L6.412,41.456 C5.208,44.452 3.276,47.112 0.616,49.436 L0,47.476 C2.128,45.488 3.696,43.22 4.676,40.644 Z M4.844,48.148 L6.524,48.96 C6.132,50.024 5.656,51.06 5.096,52.012 L5.096,66.292 L3.22,66.292 L3.22,54.728 C2.464,55.652 1.624,56.52 0.7,57.36 L0.112,55.428 C2.296,53.3 3.864,50.892 4.844,48.148 Z M7.392,51.144 L16.128,51.144 L16.128,52.936 L7.392,52.936 L7.392,51.144 Z M31.36,50.556 C30.52,51.788 29.596,52.992 28.588,54.112 L27.944,51.956 C30.688,48.568 32.676,44.676 33.936,40.308 L35.812,41.176 C35.14,43.332 34.328,45.348 33.348,47.252 L33.348,66.292 L31.36,66.292 L31.36,50.556 Z M35.7,44.256 L44.324,44.256 C43.904,43.136 43.428,42.072 42.868,41.008 L44.8,40.476 C45.388,41.708 45.836,42.828 46.172,43.864 L45.108,44.256 L53.928,44.256 L53.928,46.16 L35.7,46.16 L35.7,44.256 Z M38.276,48.428 L51.52,48.428 L51.52,50.248 L38.276,50.248 L38.276,48.428 Z M38.276,52.376 L51.52,52.376 L51.52,54.224 L38.276,54.224 L38.276,52.376 Z M52.024,56.52 L52.024,66.236 L50.064,66.236 L50.064,64.724 L39.704,64.724 L39.704,66.236 L37.744,66.236 L37.744,56.52 L52.024,56.52 Z M39.704,62.82 L50.064,62.82 L50.064,58.396 L39.704,58.396 L39.704,62.82 Z M78.344,49.044 L78.344,66.264 L76.356,66.264 L76.356,65.116 L61.74,65.116 L61.74,66.264 L59.752,66.264 L59.752,49.044 L67.34,49.044 C67.564,48.148 67.76,47.196 67.872,46.216 L56.644,46.216 L56.644,44.256 L63.784,44.256 C63.364,43.164 62.888,42.128 62.328,41.176 L64.288,40.448 C64.848,41.512 65.38,42.772 65.856,44.256 L72.072,44.256 C72.716,43.024 73.276,41.736 73.752,40.364 L75.74,41.064 C75.292,42.268 74.816,43.332 74.284,44.256 L81.452,44.256 L81.452,46.216 L70,46.216 C69.832,47.196 69.664,48.148 69.44,49.044 L78.344,49.044 Z M61.74,63.296 L76.356,63.296 L76.356,60.3 L61.74,60.3 L61.74,63.296 Z M61.74,58.508 L76.356,58.508 L76.356,55.596 L61.74,55.596 L61.74,58.508 Z M61.74,53.804 L76.356,53.804 L76.356,50.892 L61.74,50.892 L61.74,53.804 Z M105.7,46.692 L105.7,59.936 L103.684,59.936 L103.684,48.652 L90.3,48.652 L90.3,59.992 L88.284,59.992 L88.284,46.692 L95.368,46.692 C95.648,45.712 95.844,44.704 95.984,43.64 L84.728,43.64 L84.728,41.736 L109.368,41.736 L109.368,43.64 L98.112,43.64 C97.944,44.704 97.748,45.74 97.468,46.692 L105.7,46.692 Z M98.896,59.992 C102.508,61.224 105.812,62.68 108.78,64.416 L107.548,66.32 C104.356,64.332 101.108,62.764 97.776,61.644 L98.896,59.992 Z M96.012,50.332 L98.084,50.332 L98.084,54.784 C97.972,57.864 96.964,60.3 95.116,62.148 C93.324,63.856 90.384,65.172 86.296,66.124 L85.148,64.332 C89.208,63.436 92.036,62.26 93.632,60.776 C95.144,59.236 95.928,57.248 96.012,54.784 L96.012,50.332 Z M112.588,42.044 L137.48,42.044 L137.48,44.032 L125.328,44.032 L125.328,48.26 C128.8,49.996 132.328,52.012 135.912,54.308 L134.708,56.1 C130.984,53.636 127.848,51.732 125.328,50.388 L125.328,66.292 L123.284,66.292 L123.284,44.032 L112.588,44.032 L112.588,42.044 Z M150.36,45.068 L156.828,45.068 C156.436,43.556 155.96,42.184 155.456,40.896 L157.5,40.56 C157.976,41.876 158.424,43.388 158.816,45.068 L165.144,45.068 L165.144,47 L150.36,47 L150.36,45.068 Z M149.632,63.1 L158.256,63.1 C159.544,59.292 160.664,54.532 161.644,48.82 L163.576,49.324 C162.68,54.476 161.588,59.068 160.3,63.1 L165.788,63.1 L165.788,65.06 L149.632,65.06 L149.632,63.1 Z M153.58,49.128 C154.476,52.656 155.26,56.688 155.932,61.252 L154.056,61.728 C153.44,57.584 152.656,53.58 151.732,49.716 L153.58,49.128 Z M149.688,51.62 L149.688,53.664 C148.624,54.224 147.56,54.756 146.468,55.26 L146.468,63.492 C146.468,65.172 145.628,66.012 143.976,66.012 L141.456,66.012 L141.008,64.052 C141.792,64.108 142.548,64.164 143.276,64.164 C144.032,64.164 144.424,63.772 144.424,62.988 L144.424,56.128 C143.192,56.604 141.932,57.052 140.672,57.444 L140.168,55.428 C141.624,55.064 143.052,54.616 144.424,54.112 L144.424,47.644 L140.588,47.644 L140.588,45.712 L144.424,45.712 L144.424,40.644 L146.468,40.644 L146.468,45.712 L149.576,45.712 L149.576,47.644 L146.468,47.644 L146.468,53.272 C147.56,52.768 148.624,52.208 149.688,51.62 Z M171.78,48.988 L171.78,52.852 L178.416,52.852 L178.416,48.988 L171.78,48.988 Z M178.416,47.168 L178.416,43.5 L171.78,43.5 L171.78,47.168 L178.416,47.168 Z M169.568,65.396 L168.868,63.464 C169.484,63.268 169.792,62.904 169.792,62.4 L169.792,41.68 L180.32,41.68 L180.32,54.728 L171.78,54.728 L171.78,62.792 C174.244,62.064 176.428,61.336 178.36,60.58 C177.8,59.6 177.212,58.62 176.596,57.668 L178.136,56.688 C179.9,59.404 181.244,61.784 182.168,63.8 L180.628,64.92 C180.236,64.052 179.788,63.156 179.284,62.26 C176.484,63.436 173.236,64.5 169.568,65.396 Z M190.232,62.372 L187.712,62.372 L187.18,60.412 L189.56,60.468 C190.344,60.468 190.736,60.076 190.736,59.32 L190.736,43.584 L185.64,43.584 L185.64,66.152 L183.624,66.152 L183.624,41.68 L192.752,41.68 L192.752,59.768 C192.752,61.504 191.912,62.372 190.232,62.372 Z M196.588,42.24 L221.564,42.24 L221.564,44.2 L217.868,44.2 L217.868,63.24 C217.868,65.088 216.972,66.04 215.18,66.04 L210.504,66.04 L210.056,64.08 C211.596,64.136 213.08,64.192 214.48,64.192 C215.376,64.192 215.852,63.688 215.852,62.736 L215.852,44.2 L196.588,44.2 L196.588,42.24 Z M210.728,48.484 L210.728,58.76 L201.796,58.76 L201.796,61.224 L199.836,61.224 L199.836,48.484 L210.728,48.484 Z M201.796,56.912 L208.796,56.912 L208.796,50.304 L201.796,50.304 L201.796,56.912 Z M234.304,44.844 L239.288,44.844 L239.288,40.616 L241.248,40.616 L241.248,44.844 L247.212,44.844 L247.212,53.3 L249.396,53.3 L249.396,55.26 L241.752,55.26 C243.488,59.068 246.26,62.148 250.04,64.5 L248.668,66.068 C244.86,63.464 242.06,60.188 240.296,56.212 C239.036,60.692 236.544,63.968 232.82,66.096 L231.588,64.444 C235.172,62.54 237.524,59.488 238.588,55.26 L233.156,55.26 L233.156,53.3 L238.98,53.3 C239.176,52.012 239.288,50.612 239.288,49.156 L239.288,46.72 L234.304,46.72 L234.304,44.844 Z M241.248,46.72 L241.248,48.736 C241.248,50.36 241.136,51.872 240.912,53.3 L245.252,53.3 L245.252,46.72 L241.248,46.72 Z M225.176,45.964 L226.772,46.076 C226.688,48.876 226.352,51.564 225.764,54.084 L224.112,53.608 C224.728,51.2 225.092,48.652 225.176,45.964 Z M232.232,45.348 C233.016,47.14 233.688,49.184 234.304,51.508 L232.652,51.9 C232.148,49.8 231.504,47.784 230.72,45.824 L232.232,45.348 Z M228.172,40.644 L230.16,40.644 L230.16,66.124 L228.172,66.124 L228.172,40.644 Z M260.96,42.856 L268.1,42.856 L268.1,40.588 L269.976,40.588 L269.976,42.856 L277.004,42.856 L277.004,44.704 L269.976,44.704 L269.976,47.084 L276.08,47.084 L276.08,54.224 L269.976,54.224 L269.976,62.792 L268.1,62.792 L268.1,55.036 C266.672,57.528 264.46,59.656 261.464,61.42 L260.204,59.824 C263.284,58.256 265.468,56.38 266.784,54.224 L261.996,54.224 L261.996,47.084 L268.1,47.084 L268.1,44.704 L260.96,44.704 L260.96,42.856 Z M274.232,52.432 L274.232,48.848 L269.976,48.848 L269.976,52.432 L274.232,52.432 Z M268.1,52.432 L268.1,48.848 L263.872,48.848 L263.872,52.432 L268.1,52.432 Z M272.188,55.064 C274.176,56.66 275.856,58.256 277.228,59.88 L275.884,61.224 C274.652,59.656 273,58.032 270.872,56.296 L272.188,55.064 Z M254.576,41.008 C256.508,42.464 258.132,43.92 259.448,45.376 L258.02,46.776 C256.844,45.376 255.248,43.892 253.204,42.324 L254.576,41.008 Z M270.9,65.732 C269.36,65.732 267.68,65.704 265.888,65.676 C264.096,65.648 262.612,65.48 261.492,65.172 C260.372,64.836 259.392,64.136 258.524,63.128 C258.132,62.652 257.768,62.428 257.432,62.428 C256.76,62.428 255.668,63.716 254.156,66.292 L252.644,64.92 C254.1,62.568 255.416,61.14 256.536,60.636 L256.536,52.124 L252.56,52.124 L252.56,50.276 L258.412,50.276 L258.412,60.748 C258.636,60.916 258.86,61.112 259.112,61.392 C259.784,62.204 260.512,62.792 261.296,63.156 C262.164,63.548 263.424,63.772 265.104,63.828 C266.588,63.856 268.436,63.884 270.62,63.884 C271.964,63.884 273.308,63.856 274.68,63.828 C276.052,63.8 277.116,63.772 277.844,63.716 L277.34,65.732 L270.9,65.732 Z M289.24,44.872 L296.828,44.872 C296.212,43.472 295.512,42.128 294.672,40.84 L296.632,40.28 C297.528,41.82 298.256,43.22 298.76,44.508 L297.836,44.872 L305.984,44.872 L305.984,46.804 L296.576,46.804 C296.548,47.98 296.492,49.604 296.38,51.676 L304.08,51.676 C304.024,57.836 303.8,61.812 303.464,63.576 C302.988,65.144 301.84,65.928 299.992,65.984 C299.096,65.984 298.06,65.928 296.884,65.872 L296.268,64.052 C297.668,64.108 298.816,64.164 299.768,64.164 C300.86,64.108 301.532,63.548 301.784,62.428 C301.952,61.056 302.036,58.116 302.092,53.58 L296.212,53.58 C295.932,55.876 295.4,57.948 294.616,59.824 C293.552,62.204 292.096,64.388 290.22,66.348 L288.736,64.948 C290.948,62.456 292.432,60.132 293.188,58.004 C293.888,55.904 294.28,53.524 294.392,50.864 C294.448,49.072 294.504,47.728 294.532,46.804 L289.24,46.804 L289.24,44.872 Z M283.388,40.924 C285.348,42.408 286.972,43.864 288.288,45.32 L286.888,46.748 C285.712,45.32 284.06,43.836 281.988,42.268 L283.388,40.924 Z M280.308,49.184 L286.16,49.184 L286.16,61.504 C287.112,60.692 288.12,59.74 289.184,58.676 L289.716,60.804 C288.036,62.456 286.244,63.94 284.34,65.228 L283.584,63.436 C283.976,63.044 284.2,62.624 284.2,62.148 L284.2,51.116 L280.308,51.116 L280.308,49.184 Z M329.196,66.068 L326.2,66.068 L325.696,64.192 L328.776,64.248 C329.84,64.248 330.372,63.632 330.372,62.4 L330.372,44.144 L319.508,44.144 L319.508,42.184 L332.416,42.184 L332.416,62.932 C332.416,65.004 331.324,66.068 329.196,66.068 Z M309.68,45.208 L311.724,45.208 L311.724,66.264 L309.68,66.264 L309.68,45.208 Z M315.952,49.24 L326.032,49.24 L326.032,59.768 L315.952,59.768 L315.952,49.24 Z M323.988,57.836 L323.988,51.172 L317.996,51.172 L317.996,57.836 L323.988,57.836 Z M313.852,40.336 C315.14,41.876 316.316,43.556 317.324,45.404 L315.532,46.328 C314.468,44.368 313.264,42.66 311.976,41.148 L313.852,40.336 Z M348.124,55.68 L350.084,55.68 L350.084,58.144 L359.38,58.144 L359.38,59.992 L350.084,59.992 L350.084,63.324 L361.508,63.324 L361.508,65.144 L336.56,65.144 L336.56,63.324 L348.124,63.324 L348.124,59.992 L338.856,59.992 L338.856,58.144 L348.124,58.144 L348.124,55.68 Z M340.424,49.52 L347.928,49.52 L347.928,55.064 L340.424,55.064 L340.424,49.52 Z M346.136,53.496 L346.136,51.116 L342.216,51.116 L342.216,53.496 L346.136,53.496 Z M349.216,42.94 L353.64,42.94 C353.36,42.212 353.024,41.512 352.688,40.868 L354.704,40.532 C354.984,41.26 355.264,42.044 355.544,42.94 L360.36,42.94 L360.36,44.564 L358.708,44.564 C358.484,45.628 358.148,46.664 357.728,47.644 L361.088,47.644 L361.088,49.324 L355.656,49.324 L355.656,51.676 L360.248,51.676 L360.248,53.328 L355.656,53.328 L355.656,55.932 L353.724,55.932 L353.724,53.328 L349.58,53.328 L349.58,51.676 L353.724,51.676 L353.724,49.324 L348.656,49.324 L348.656,47.644 L351.848,47.644 C351.512,46.524 351.148,45.488 350.756,44.564 L349.216,44.564 L349.216,42.94 Z M355.936,47.644 C356.412,46.664 356.776,45.628 357,44.564 L352.66,44.564 C352.996,45.516 353.304,46.524 353.612,47.644 L355.936,47.644 Z M345.716,43.444 L340.256,43.444 L340.256,46.048 L345.716,46.048 L345.716,43.444 Z M340.2,47.7 C339.976,50.612 339.136,53.16 337.652,55.316 L336.224,54.056 C337.68,52.068 338.436,49.52 338.464,46.384 L338.464,41.764 L347.536,41.764 L347.536,47.7 L340.2,47.7 Z M377.468,52.32 L377.468,62.904 C378.98,62.232 380.52,61.504 382.088,60.692 L382.872,62.372 C380.632,63.548 378.196,64.668 375.62,65.732 L374.92,64.08 C375.312,63.856 375.536,63.492 375.536,62.96 L375.536,42.884 C380.296,42.464 384.216,41.708 387.352,40.644 L388.388,42.324 C387.184,42.772 385.868,43.164 384.412,43.5 C384.412,45.516 384.468,47.812 384.524,50.388 L389.284,50.388 L389.284,52.32 L384.608,52.32 C384.888,59.488 385.7,63.212 387.016,63.492 C387.436,63.352 387.8,62.092 388.136,59.74 L389.9,60.776 C389.116,64.08 388.136,65.76 386.904,65.76 C384.468,65.732 383.04,61.252 382.592,52.32 L377.468,52.32 Z M382.368,43.92 C380.856,44.2 379.204,44.452 377.468,44.648 L377.468,50.388 L382.508,50.388 C382.424,48.344 382.368,46.188 382.368,43.92 Z M374.276,60.384 L374.276,62.456 C371.42,63.576 368.2,64.472 364.56,65.172 L364.28,63.128 C368.088,62.456 371.42,61.532 374.276,60.384 Z M369.04,40.364 L371,41.148 C369.572,44.844 368.144,47.756 366.716,49.94 C368.004,49.772 369.264,49.576 370.552,49.352 C371.112,48.26 371.728,47.112 372.372,45.88 L374.276,46.608 C371.616,51.536 369.404,55.036 367.668,57.108 C369.796,56.688 371.924,56.128 374.052,55.4 L374.052,57.192 C370.972,58.228 368.032,58.928 365.204,59.32 L364.672,57.444 C365.036,57.276 365.344,57.08 365.596,56.856 C366.66,55.736 367.976,53.86 369.516,51.228 C368.004,51.48 366.464,51.732 364.924,51.956 L364.42,50.08 C364.728,49.94 365.008,49.688 365.288,49.296 C366.716,46.72 367.976,43.724 369.04,40.364 Z" id="添加到我的小程序，微信首页下拉即可快速访问壁纸" fill="#FFFFFF"/>
                    </g>
                    <path d="M86.90625,11.21875 C84.697111,11.21875 82.90625,9.427889 82.90625,7.21875 C82.90625,5.009611 84.697111,3.21875 86.90625,3.21875 C89.115389,3.21875 90.90625,5.009611 90.90625,7.21875 C90.90625,9.427889 89.115389,11.21875 86.90625,11.21875 Z M115.90625,11.21875 C113.697111,11.21875 111.90625,9.427889 111.90625,7.21875 C111.90625,5.009611 113.697111,3.21875 115.90625,3.21875 C118.115389,3.21875 119.90625,5.009611 119.90625,7.21875 C119.90625,9.427889 118.115389,11.21875 115.90625,11.21875 Z M101.40625,13.21875 C97.8163991,13.21875 94.90625,10.3086009 94.90625,6.71875 C94.90625,3.12889913 97.8163991,0.21875 101.40625,0.21875 C104.996101,0.21875 107.90625,3.12889913 107.90625,6.71875 C107.90625,10.3086009 104.996101,13.21875 101.40625,13.21875 Z" id="Combined-Shape" fill="#E8DA43"/>
                </g>
            </g>
        </g>
    </g>
</svg>